<svg id="svg" version="1.1" width="400" height="80.65173116089613" viewBox="0 0 400 80.65173116089613" xmlns="http://www.w3.org/2000/svg" xmlns:xlink="http://www.w3.org/1999/xlink" ><g id="svgg"><path id="path0" d="M68.667 0.333 C 68.667 0.517,68.592 0.667,68.500 0.667 C 68.408 0.667,68.333 1.042,68.333 1.500 C 68.333 2.130,68.272 2.333,68.083 2.333 C 67.889 2.333,67.833 2.556,67.833 3.333 C 67.833 3.889,67.759 4.333,67.667 4.333 C 67.574 4.333,67.500 4.778,67.500 5.333 C 67.500 6.111,67.444 6.333,67.250 6.333 C 67.056 6.333,67.000 6.556,67.000 7.333 C 67.000 7.889,66.926 8.333,66.833 8.333 C 66.742 8.333,66.667 8.700,66.667 9.149 C 66.667 9.720,66.592 9.993,66.417 10.060 C 66.236 10.130,66.167 10.412,66.167 11.078 C 66.167 11.585,66.092 12.000,66.000 12.000 C 65.908 12.000,65.833 12.439,65.833 12.982 C 65.833 13.701,65.766 13.990,65.583 14.060 C 65.399 14.131,65.333 14.422,65.333 15.161 C 65.333 15.720,65.259 16.167,65.167 16.167 C 65.075 16.167,65.000 16.500,65.000 16.907 C 65.000 17.314,64.925 17.693,64.833 17.750 C 64.742 17.807,64.667 18.253,64.667 18.742 C 64.667 19.378,64.596 19.658,64.417 19.727 C 64.233 19.798,64.167 20.088,64.167 20.828 C 64.167 21.387,64.093 21.833,64.000 21.833 C 63.908 21.833,63.833 22.173,63.833 22.589 C 63.833 23.106,63.755 23.374,63.583 23.440 C 63.400 23.510,63.333 23.799,63.333 24.518 C 63.333 25.061,63.259 25.500,63.167 25.500 C 63.074 25.500,63.000 25.944,63.000 26.500 C 63.000 27.278,62.944 27.500,62.750 27.500 C 62.556 27.500,62.500 27.722,62.500 28.500 C 62.500 29.056,62.426 29.500,62.333 29.500 C 62.242 29.500,62.167 29.843,62.167 30.262 C 62.167 30.717,62.066 31.125,61.917 31.274 C 61.762 31.428,61.667 31.837,61.667 32.345 C 61.667 32.797,61.592 33.167,61.500 33.167 C 61.407 33.167,61.333 33.611,61.333 34.167 C 61.333 34.722,61.259 35.167,61.167 35.167 C 61.075 35.167,61.000 35.534,61.000 35.982 C 61.000 36.553,60.925 36.826,60.750 36.894 C 60.569 36.963,60.500 37.246,60.500 37.911 C 60.500 38.418,60.425 38.833,60.333 38.833 C 60.241 38.833,60.167 39.272,60.167 39.816 C 60.167 40.535,60.100 40.823,59.917 40.894 C 59.733 40.964,59.667 41.255,59.667 41.995 C 59.667 42.554,59.593 43.000,59.500 43.000 C 59.408 43.000,59.333 43.329,59.333 43.732 C 59.333 44.229,59.253 44.495,59.083 44.560 C 58.903 44.629,58.833 44.911,58.833 45.568 C 58.833 46.070,58.758 46.527,58.667 46.583 C 58.575 46.640,58.500 47.132,58.500 47.677 C 58.500 48.446,58.444 48.667,58.250 48.667 C 58.056 48.667,58.000 48.889,58.000 49.667 C 58.000 50.222,57.926 50.667,57.833 50.667 C 57.742 50.667,57.667 51.042,57.667 51.500 C 57.667 51.958,57.592 52.333,57.500 52.333 C 57.407 52.333,57.333 52.778,57.333 53.333 C 57.333 54.111,57.278 54.333,57.083 54.333 C 56.889 54.333,56.833 54.556,56.833 55.333 C 56.833 55.889,56.759 56.333,56.667 56.333 C 56.575 56.333,56.500 56.700,56.500 57.149 C 56.500 57.720,56.425 57.993,56.250 58.060 C 56.069 58.130,56.000 58.412,56.000 59.078 C 56.000 59.585,55.925 60.000,55.833 60.000 C 55.735 60.000,55.667 60.583,55.667 61.417 L 55.667 62.833 61.917 62.833 C 67.361 62.833,68.167 62.801,68.167 62.583 C 68.167 62.446,68.279 62.333,68.417 62.333 C 68.611 62.333,68.667 62.111,68.667 61.333 C 68.667 60.778,68.741 60.333,68.833 60.333 C 68.926 60.333,69.000 59.889,69.000 59.333 C 69.000 58.556,69.056 58.333,69.250 58.333 C 69.439 58.333,69.500 58.130,69.500 57.500 C 69.500 57.042,69.575 56.667,69.667 56.667 C 69.759 56.667,69.833 56.228,69.833 55.684 C 69.833 54.965,69.900 54.677,70.083 54.606 C 70.264 54.537,70.333 54.254,70.333 53.589 C 70.333 53.082,70.408 52.667,70.500 52.667 C 70.593 52.667,70.667 52.222,70.667 51.667 C 70.667 51.111,70.741 50.667,70.833 50.667 C 70.925 50.667,71.000 50.300,71.000 49.851 C 71.000 49.280,71.075 49.007,71.250 48.940 C 71.431 48.870,71.500 48.588,71.500 47.922 C 71.500 47.415,71.575 47.000,71.667 47.000 C 71.759 47.000,71.833 46.561,71.833 46.018 C 71.833 45.299,71.900 45.010,72.083 44.940 C 72.267 44.869,72.333 44.578,72.333 43.839 C 72.333 43.280,72.407 42.833,72.500 42.833 C 72.592 42.833,72.667 42.504,72.667 42.101 C 72.667 41.604,72.747 41.338,72.917 41.273 C 73.101 41.202,73.167 40.912,73.167 40.172 C 73.167 39.613,73.241 39.167,73.333 39.167 C 73.426 39.167,73.500 38.722,73.500 38.167 C 73.500 37.389,73.556 37.167,73.750 37.167 C 73.939 37.167,74.000 36.963,74.000 36.333 C 74.000 35.875,74.075 35.500,74.167 35.500 C 74.259 35.500,74.333 35.056,74.333 34.500 C 74.333 33.944,74.407 33.500,74.500 33.500 C 74.593 33.500,74.667 33.056,74.667 32.500 C 74.667 31.722,74.722 31.500,74.917 31.500 C 75.111 31.500,75.167 31.278,75.167 30.500 C 75.167 29.944,75.241 29.500,75.333 29.500 C 75.425 29.500,75.500 29.133,75.500 28.684 C 75.500 28.113,75.575 27.840,75.750 27.773 C 75.931 27.704,76.000 27.421,76.000 26.755 C 76.000 26.248,76.075 25.833,76.167 25.833 C 76.259 25.833,76.333 25.395,76.333 24.851 C 76.333 24.132,76.400 23.843,76.583 23.773 C 76.754 23.708,76.833 23.441,76.833 22.932 C 76.833 22.522,76.908 22.140,77.000 22.083 C 77.092 22.027,77.167 21.580,77.167 21.091 C 77.167 20.455,77.238 20.175,77.417 20.106 C 77.597 20.037,77.667 19.755,77.667 19.098 C 77.667 18.597,77.742 18.140,77.833 18.083 C 77.925 18.027,78.000 17.535,78.000 16.990 C 78.000 16.441,78.074 16.000,78.167 16.000 C 78.258 16.000,78.333 15.660,78.333 15.245 C 78.333 14.727,78.412 14.459,78.583 14.394 C 78.766 14.323,78.833 14.035,78.833 13.316 C 78.833 12.772,78.908 12.333,79.000 12.333 C 79.093 12.333,79.167 11.889,79.167 11.333 C 79.167 10.556,79.222 10.333,79.417 10.333 C 79.611 10.333,79.667 10.111,79.667 9.333 C 79.667 8.778,79.741 8.333,79.833 8.333 C 79.925 8.333,80.000 7.966,80.000 7.518 C 80.000 6.947,80.075 6.674,80.250 6.606 C 80.431 6.537,80.500 6.254,80.500 5.589 C 80.500 5.082,80.575 4.667,80.667 4.667 C 80.759 4.667,80.833 4.228,80.833 3.684 C 80.833 2.965,80.900 2.677,81.083 2.606 C 81.255 2.541,81.333 2.273,81.333 1.755 C 81.333 1.340,81.408 1.000,81.500 1.000 C 81.592 1.000,81.667 0.775,81.667 0.500 L 81.667 0.000 75.167 0.000 C 68.778 0.000,68.667 0.006,68.667 0.333 M12.000 4.333 C 12.000 4.792,11.925 5.167,11.833 5.167 C 11.742 5.167,11.667 5.510,11.667 5.929 C 11.667 6.384,11.566 6.791,11.417 6.940 C 11.262 7.095,11.167 7.504,11.167 8.012 C 11.167 8.464,11.092 8.833,11.000 8.833 C 10.907 8.833,10.833 9.278,10.833 9.833 C 10.833 10.611,10.778 10.833,10.583 10.833 C 10.394 10.833,10.333 11.037,10.333 11.667 C 10.333 12.125,10.258 12.500,10.167 12.500 C 10.074 12.500,10.000 12.944,10.000 13.500 C 10.000 14.056,9.926 14.500,9.833 14.500 C 9.742 14.500,9.667 14.762,9.667 15.083 L 9.667 15.667 26.095 15.667 C 43.258 15.667,43.000 15.657,43.000 16.321 C 43.000 16.420,43.075 16.500,43.167 16.500 C 43.258 16.500,43.333 16.688,43.333 16.917 C 43.333 17.146,43.258 17.333,43.167 17.333 C 43.074 17.333,43.000 17.778,43.000 18.333 C 43.000 18.889,42.926 19.333,42.833 19.333 C 42.742 19.333,42.667 19.700,42.667 20.149 C 42.667 20.720,42.592 20.993,42.417 21.060 C 42.236 21.130,42.167 21.412,42.167 22.078 C 42.167 22.585,42.092 23.000,42.000 23.000 C 41.908 23.000,41.833 23.367,41.833 23.816 C 41.833 24.387,41.758 24.660,41.583 24.727 C 41.403 24.796,41.333 25.079,41.333 25.745 C 41.333 26.252,41.258 26.667,41.167 26.667 C 41.074 26.667,41.000 27.111,41.000 27.667 C 41.000 28.444,40.944 28.667,40.750 28.667 C 40.561 28.667,40.500 28.870,40.500 29.500 C 40.500 29.958,40.425 30.333,40.333 30.333 C 40.242 30.333,40.167 30.513,40.167 30.732 C 40.167 30.952,40.054 31.174,39.917 31.227 C 39.779 31.280,39.667 31.475,39.667 31.661 C 39.667 31.889,39.557 32.000,39.333 32.000 C 39.150 32.000,39.000 32.075,39.000 32.167 C 39.000 32.276,35.750 32.333,29.583 32.333 L 20.167 32.333 20.167 31.917 C 20.167 31.688,20.242 31.500,20.333 31.500 C 20.426 31.500,20.500 31.056,20.500 30.500 C 20.500 29.722,20.556 29.500,20.750 29.500 C 20.944 29.500,21.000 29.278,21.000 28.500 C 21.000 27.944,21.074 27.500,21.167 27.500 C 21.258 27.500,21.333 27.133,21.333 26.684 C 21.333 26.113,21.408 25.840,21.583 25.773 C 21.764 25.704,21.833 25.421,21.833 24.755 C 21.833 24.248,21.908 23.833,22.000 23.833 C 22.092 23.833,22.167 23.395,22.167 22.851 C 22.167 22.132,22.234 21.843,22.417 21.773 C 22.587 21.708,22.667 21.441,22.667 20.932 C 22.667 20.522,22.742 20.140,22.833 20.083 C 22.925 20.027,23.000 19.835,23.000 19.657 C 23.000 19.342,22.817 19.333,15.917 19.333 L 8.833 19.333 8.833 19.899 C 8.833 20.248,8.738 20.501,8.583 20.560 C 8.399 20.631,8.333 20.922,8.333 21.661 C 8.333 22.220,8.259 22.667,8.167 22.667 C 8.075 22.667,8.000 22.998,8.000 23.403 C 8.000 23.810,7.914 24.167,7.808 24.203 C 7.703 24.238,7.581 24.696,7.537 25.220 C 7.494 25.744,7.393 26.213,7.312 26.263 C 7.232 26.312,7.167 26.799,7.167 27.343 C 7.167 28.112,7.111 28.333,6.917 28.333 C 6.728 28.333,6.667 28.537,6.667 29.167 C 6.667 29.625,6.592 30.000,6.500 30.000 C 6.407 30.000,6.333 30.444,6.333 31.000 C 6.333 31.556,6.259 32.000,6.167 32.000 C 6.074 32.000,6.000 32.444,6.000 33.000 C 6.000 33.778,5.944 34.000,5.750 34.000 C 5.556 34.000,5.500 34.222,5.500 35.000 C 5.500 35.556,5.426 36.000,5.333 36.000 C 5.242 36.000,5.167 36.367,5.167 36.816 C 5.167 37.387,5.092 37.660,4.917 37.727 C 4.736 37.796,4.667 38.079,4.667 38.745 C 4.667 39.252,4.592 39.667,4.500 39.667 C 4.408 39.667,4.333 40.105,4.333 40.649 C 4.333 41.368,4.266 41.657,4.083 41.727 C 3.912 41.793,3.833 42.061,3.833 42.578 C 3.833 42.993,3.758 43.333,3.667 43.333 C 3.574 43.333,3.500 43.772,3.500 44.316 C 3.500 45.035,3.433 45.323,3.250 45.394 C 3.069 45.463,3.000 45.746,3.000 46.411 C 3.000 46.918,2.925 47.333,2.833 47.333 C 2.739 47.333,2.667 47.806,2.667 48.417 C 2.667 49.028,2.594 49.500,2.500 49.500 C 2.408 49.500,2.333 49.829,2.333 50.232 C 2.333 50.729,2.253 50.995,2.083 51.060 C 1.903 51.129,1.833 51.411,1.833 52.068 C 1.833 52.570,1.758 53.027,1.667 53.083 C 1.575 53.140,1.500 53.632,1.500 54.177 C 1.500 54.946,1.444 55.167,1.250 55.167 C 1.061 55.167,1.000 55.370,1.000 56.000 C 1.000 56.458,0.925 56.833,0.833 56.833 C 0.742 56.833,0.667 57.256,0.667 57.773 C 0.667 58.391,0.585 58.777,0.428 58.898 C 0.261 59.028,0.155 59.641,0.074 60.958 L -0.043 62.833 6.812 62.833 L 13.667 62.833 13.667 62.417 C 13.667 62.188,13.742 62.000,13.833 62.000 C 13.925 62.000,14.000 61.633,14.000 61.184 C 14.000 60.613,14.075 60.340,14.250 60.273 C 14.431 60.204,14.500 59.921,14.500 59.255 C 14.500 58.748,14.575 58.333,14.667 58.333 C 14.759 58.333,14.833 57.895,14.833 57.351 C 14.833 56.632,14.900 56.343,15.083 56.273 C 15.264 56.204,15.333 55.921,15.333 55.255 C 15.333 54.748,15.408 54.333,15.500 54.333 C 15.592 54.333,15.667 53.990,15.667 53.571 C 15.667 53.116,15.767 52.709,15.917 52.560 C 16.071 52.405,16.167 51.996,16.167 51.488 C 16.167 51.036,16.242 50.667,16.333 50.667 C 16.426 50.667,16.500 50.222,16.500 49.667 C 16.500 49.111,16.574 48.667,16.667 48.667 C 16.761 48.667,16.833 48.194,16.833 47.583 C 16.833 46.731,16.887 46.500,17.083 46.500 C 17.272 46.500,17.333 46.296,17.333 45.667 C 17.333 45.208,17.408 44.833,17.500 44.833 C 17.592 44.833,17.667 44.571,17.667 44.250 L 17.667 43.667 31.333 43.667 C 40.333 43.667,45.000 43.610,45.000 43.500 C 45.000 43.408,45.340 43.333,45.755 43.333 C 46.273 43.333,46.541 43.255,46.606 43.083 C 46.659 42.946,46.882 42.833,47.101 42.833 C 47.321 42.833,47.500 42.758,47.500 42.667 C 47.500 42.575,47.652 42.500,47.839 42.500 C 48.025 42.500,48.220 42.387,48.273 42.250 C 48.326 42.112,48.511 42.000,48.684 42.000 C 48.858 42.000,49.000 41.925,49.000 41.833 C 49.000 41.742,49.080 41.667,49.179 41.667 C 49.409 41.667,49.833 41.243,49.833 41.012 C 49.833 40.914,49.919 40.833,50.023 40.833 C 50.279 40.833,50.655 40.319,50.661 39.958 C 50.664 39.798,50.779 39.667,50.917 39.667 C 51.054 39.667,51.167 39.554,51.167 39.417 C 51.167 39.279,51.242 39.167,51.333 39.167 C 51.425 39.167,51.500 39.025,51.500 38.851 C 51.500 38.678,51.612 38.492,51.750 38.440 C 51.887 38.387,52.000 38.196,52.000 38.015 C 52.000 37.834,52.075 37.640,52.167 37.583 C 52.258 37.527,52.333 37.222,52.333 36.907 C 52.333 36.591,52.408 36.333,52.500 36.333 C 52.592 36.333,52.667 36.071,52.667 35.750 C 52.667 35.343,52.742 35.167,52.917 35.167 C 53.106 35.167,53.167 34.963,53.167 34.333 C 53.167 33.875,53.242 33.500,53.333 33.500 C 53.425 33.500,53.500 33.125,53.500 32.667 C 53.500 32.037,53.561 31.833,53.750 31.833 C 53.944 31.833,54.000 31.611,54.000 30.833 C 54.000 30.278,54.074 29.833,54.167 29.833 C 54.259 29.833,54.333 29.389,54.333 28.833 C 54.333 28.056,54.389 27.833,54.583 27.833 C 54.778 27.833,54.833 27.611,54.833 26.833 C 54.833 26.278,54.907 25.833,55.000 25.833 C 55.092 25.833,55.167 25.490,55.167 25.071 C 55.167 24.616,55.267 24.209,55.417 24.060 C 55.571 23.905,55.667 23.496,55.667 22.988 C 55.667 22.536,55.742 22.167,55.833 22.167 C 55.926 22.167,56.000 21.722,56.000 21.167 C 56.000 20.611,56.074 20.167,56.167 20.167 C 56.259 20.167,56.333 19.728,56.333 19.184 C 56.333 18.465,56.400 18.177,56.583 18.106 C 56.754 18.041,56.833 17.774,56.833 17.265 C 56.833 16.855,56.908 16.473,57.000 16.417 C 57.092 16.360,57.167 15.914,57.167 15.425 C 57.167 14.788,57.238 14.508,57.417 14.440 C 57.612 14.365,57.667 14.032,57.667 12.922 C 57.667 12.085,57.735 11.500,57.833 11.500 C 57.929 11.500,58.000 11.000,58.000 10.333 C 58.000 9.667,57.929 9.167,57.833 9.167 C 57.741 9.167,57.667 8.722,57.667 8.167 C 57.667 7.389,57.611 7.167,57.417 7.167 C 57.261 7.167,57.167 7.009,57.167 6.750 C 57.167 6.521,57.092 6.333,57.000 6.333 C 56.908 6.333,56.833 6.213,56.833 6.067 C 56.833 5.721,55.779 4.667,55.433 4.667 C 55.287 4.667,55.167 4.592,55.167 4.500 C 55.167 4.408,54.979 4.333,54.750 4.333 C 54.491 4.333,54.333 4.239,54.333 4.083 C 54.333 3.894,54.130 3.833,53.500 3.833 C 53.042 3.833,52.667 3.758,52.667 3.667 C 52.667 3.556,45.778 3.500,32.333 3.500 L 12.000 3.500 12.000 4.333 M348.167 3.917 C 348.167 4.176,348.072 4.333,347.917 4.333 C 347.722 4.333,347.667 4.556,347.667 5.333 C 347.667 5.889,347.593 6.333,347.500 6.333 C 347.407 6.333,347.333 6.778,347.333 7.333 C 347.333 8.111,347.278 8.333,347.083 8.333 C 346.894 8.333,346.833 8.537,346.833 9.167 C 346.833 9.625,346.758 10.000,346.667 10.000 C 346.574 10.000,346.500 10.439,346.500 10.982 C 346.500 11.701,346.433 11.990,346.250 12.060 C 346.069 12.130,346.000 12.412,346.000 13.078 C 346.000 13.585,345.925 14.000,345.833 14.000 C 345.739 14.000,345.667 14.472,345.667 15.083 C 345.667 15.935,345.613 16.167,345.417 16.167 C 345.232 16.167,345.167 16.360,345.167 16.907 C 345.167 17.314,345.092 17.693,345.000 17.750 C 344.908 17.807,344.833 18.257,344.833 18.750 C 344.833 19.243,344.758 19.693,344.667 19.750 C 344.575 19.807,344.500 20.299,344.500 20.843 C 344.500 21.612,344.444 21.833,344.250 21.833 C 344.056 21.833,344.000 22.056,344.000 22.833 C 344.000 23.389,343.926 23.833,343.833 23.833 C 343.742 23.833,343.667 24.208,343.667 24.667 C 343.667 25.296,343.606 25.500,343.417 25.500 C 343.222 25.500,343.167 25.722,343.167 26.500 C 343.167 27.056,343.093 27.500,343.000 27.500 C 342.907 27.500,342.833 27.944,342.833 28.500 C 342.833 29.278,342.778 29.500,342.583 29.500 C 342.394 29.500,342.333 29.704,342.333 30.333 C 342.333 30.792,342.258 31.167,342.167 31.167 C 342.074 31.167,342.000 31.605,342.000 32.149 C 342.000 32.868,341.933 33.157,341.750 33.227 C 341.569 33.296,341.500 33.579,341.500 34.245 C 341.500 34.752,341.425 35.167,341.333 35.167 C 341.241 35.167,341.167 35.611,341.167 36.167 C 341.167 36.722,341.093 37.167,341.000 37.167 C 340.908 37.167,340.833 37.534,340.833 37.982 C 340.833 38.553,340.758 38.826,340.583 38.894 C 340.403 38.963,340.333 39.246,340.333 39.911 C 340.333 40.418,340.258 40.833,340.167 40.833 C 340.073 40.833,340.000 41.306,340.000 41.917 C 340.000 42.769,339.947 43.000,339.750 43.000 C 339.556 43.000,339.500 43.222,339.500 44.000 C 339.500 44.556,339.426 45.000,339.333 45.000 C 339.242 45.000,339.167 45.367,339.167 45.816 C 339.167 46.387,339.092 46.660,338.917 46.727 C 338.736 46.796,338.667 47.079,338.667 47.745 C 338.667 48.252,338.592 48.667,338.500 48.667 C 338.408 48.667,338.333 49.105,338.333 49.649 C 338.333 50.368,338.266 50.657,338.083 50.727 C 337.903 50.796,337.833 51.079,337.833 51.745 C 337.833 52.252,337.758 52.667,337.667 52.667 C 337.575 52.667,337.500 53.042,337.500 53.500 C 337.500 53.958,337.425 54.333,337.333 54.333 C 337.241 54.333,337.167 54.778,337.167 55.333 C 337.167 56.111,337.111 56.333,336.917 56.333 C 336.722 56.333,336.667 56.556,336.667 57.333 C 336.667 57.889,336.593 58.333,336.500 58.333 C 336.408 58.333,336.333 58.700,336.333 59.149 C 336.333 59.720,336.258 59.993,336.083 60.060 C 335.890 60.135,335.833 60.459,335.833 61.495 L 335.833 62.833 342.333 62.833 L 348.833 62.833 348.833 61.833 C 348.833 61.056,348.889 60.833,349.083 60.833 C 349.272 60.833,349.333 60.631,349.333 60.010 C 349.333 59.557,349.408 59.140,349.500 59.083 C 349.592 59.027,349.667 58.580,349.667 58.091 C 349.667 57.455,349.738 57.175,349.917 57.106 C 350.097 57.037,350.167 56.755,350.167 56.098 C 350.167 55.597,350.242 55.140,350.333 55.083 C 350.425 55.027,350.500 54.535,350.500 53.990 C 350.500 53.441,350.574 53.000,350.667 53.000 C 350.758 53.000,350.833 52.660,350.833 52.245 C 350.833 51.727,350.912 51.459,351.083 51.394 C 351.266 51.323,351.333 51.035,351.333 50.316 C 351.333 49.772,351.408 49.333,351.500 49.333 C 351.593 49.333,351.667 48.889,351.667 48.333 C 351.667 47.556,351.722 47.333,351.917 47.333 C 352.106 47.333,352.167 47.130,352.167 46.500 C 352.167 46.042,352.242 45.667,352.333 45.667 C 352.426 45.667,352.500 45.222,352.500 44.667 C 352.500 43.889,352.556 43.667,352.750 43.667 C 352.944 43.667,353.000 43.444,353.000 42.667 C 353.000 42.111,353.074 41.667,353.167 41.667 C 353.259 41.667,353.333 41.228,353.333 40.684 C 353.333 39.965,353.400 39.677,353.583 39.606 C 353.755 39.541,353.833 39.273,353.833 38.755 C 353.833 38.340,353.908 38.000,354.000 38.000 C 354.093 38.000,354.167 37.556,354.167 37.000 C 354.167 36.444,354.241 36.000,354.333 36.000 C 354.426 36.000,354.500 35.556,354.500 35.000 C 354.500 34.222,354.556 34.000,354.750 34.000 C 354.947 34.000,355.000 33.769,355.000 32.917 C 355.000 32.306,355.073 31.833,355.167 31.833 C 355.258 31.833,355.333 31.504,355.333 31.101 C 355.333 30.604,355.414 30.338,355.583 30.273 C 355.763 30.204,355.833 29.922,355.833 29.265 C 355.833 28.763,355.908 28.307,356.000 28.250 C 356.092 28.193,356.167 27.701,356.167 27.157 C 356.167 26.388,356.222 26.167,356.417 26.167 C 356.554 26.167,356.667 26.092,356.667 26.000 C 356.667 25.908,356.742 25.833,356.833 25.833 C 356.925 25.833,357.000 25.973,357.000 26.143 C 357.000 26.314,357.188 26.594,357.417 26.766 C 357.646 26.939,357.833 27.249,357.833 27.456 C 357.833 27.680,357.935 27.833,358.083 27.833 C 358.225 27.833,358.333 27.983,358.333 28.179 C 358.333 28.548,358.694 29.000,358.988 29.000 C 359.086 29.000,359.167 29.188,359.167 29.417 C 359.167 29.646,359.242 29.833,359.333 29.833 C 359.425 29.833,359.500 30.021,359.500 30.250 C 359.500 30.479,359.575 30.667,359.667 30.667 C 359.758 30.667,359.833 30.776,359.833 30.909 C 359.833 31.042,360.021 31.339,360.250 31.568 C 360.479 31.797,360.667 32.138,360.667 32.326 C 360.667 32.518,360.776 32.667,360.917 32.667 C 361.072 32.667,361.167 32.824,361.167 33.083 C 361.167 33.313,361.242 33.500,361.333 33.500 C 361.425 33.500,361.500 33.652,361.500 33.839 C 361.500 34.025,361.613 34.220,361.750 34.273 C 361.887 34.326,362.000 34.473,362.000 34.601 C 362.000 34.729,362.075 34.833,362.167 34.833 C 362.258 34.833,362.333 34.983,362.333 35.167 C 362.333 35.352,362.444 35.500,362.583 35.500 C 362.739 35.500,362.833 35.657,362.833 35.917 C 362.833 36.146,362.908 36.333,363.000 36.333 C 363.092 36.333,363.167 36.493,363.167 36.689 C 363.167 36.885,363.354 37.219,363.583 37.431 C 363.813 37.644,364.000 37.884,364.000 37.966 C 364.000 38.242,364.523 39.167,364.679 39.167 C 364.764 39.167,364.833 39.279,364.833 39.417 C 364.833 39.554,364.908 39.667,365.000 39.667 C 365.092 39.667,365.167 39.854,365.167 40.083 C 365.167 40.343,365.261 40.500,365.417 40.500 C 365.572 40.500,365.667 40.657,365.667 40.917 C 365.667 41.146,365.742 41.333,365.833 41.333 C 365.925 41.333,366.000 41.483,366.000 41.667 C 366.000 41.852,366.111 42.000,366.250 42.000 C 366.387 42.000,366.500 42.112,366.500 42.250 C 366.500 42.387,366.575 42.500,366.667 42.500 C 366.758 42.500,366.833 42.688,366.833 42.917 C 366.833 43.146,366.908 43.333,367.000 43.333 C 367.092 43.333,367.167 43.486,367.167 43.672 C 367.167 43.858,367.279 44.054,367.417 44.106 C 367.554 44.159,367.667 44.344,367.667 44.518 C 367.667 44.691,367.742 44.833,367.833 44.833 C 367.925 44.833,368.000 44.946,368.000 45.083 C 368.000 45.221,368.113 45.333,368.250 45.333 C 368.406 45.333,368.500 45.491,368.500 45.750 C 368.500 45.979,368.575 46.167,368.667 46.167 C 368.758 46.167,368.833 46.319,368.833 46.505 C 368.833 46.691,368.946 46.887,369.083 46.940 C 369.221 46.992,369.333 47.178,369.333 47.351 C 369.333 47.525,369.408 47.667,369.500 47.667 C 369.592 47.667,369.667 47.779,369.667 47.917 C 369.667 48.054,369.779 48.167,369.917 48.167 C 370.072 48.167,370.167 48.324,370.167 48.583 C 370.167 48.813,370.242 49.000,370.333 49.000 C 370.425 49.000,370.502 49.131,370.505 49.292 C 370.512 49.652,370.887 50.167,371.143 50.167 C 371.248 50.167,371.333 50.354,371.333 50.583 C 371.333 50.813,371.408 51.000,371.500 51.000 C 371.592 51.000,371.667 51.188,371.667 51.417 C 371.667 51.676,371.761 51.833,371.917 51.833 C 372.054 51.833,372.169 51.965,372.172 52.125 C 372.179 52.485,372.554 53.000,372.810 53.000 C 372.915 53.000,373.000 53.188,373.000 53.417 C 373.000 53.646,373.075 53.833,373.167 53.833 C 373.258 53.833,373.333 54.021,373.333 54.250 C 373.333 54.509,373.428 54.667,373.583 54.667 C 373.732 54.667,373.833 54.820,373.833 55.047 C 373.833 55.255,373.983 55.535,374.167 55.667 C 374.350 55.799,374.500 56.078,374.500 56.287 C 374.500 56.513,374.601 56.667,374.750 56.667 C 374.906 56.667,375.000 56.824,375.000 57.083 C 375.000 57.313,375.075 57.500,375.167 57.500 C 375.258 57.500,375.333 57.639,375.333 57.810 C 375.333 57.980,375.521 58.261,375.750 58.433 C 375.979 58.605,376.167 58.915,376.167 59.123 C 376.167 59.347,376.268 59.500,376.417 59.500 C 376.572 59.500,376.667 59.657,376.667 59.917 C 376.667 60.146,376.742 60.333,376.833 60.333 C 376.925 60.333,377.000 60.486,377.000 60.672 C 377.000 60.858,377.113 61.054,377.250 61.106 C 377.387 61.159,377.500 61.307,377.500 61.434 C 377.500 61.562,377.575 61.667,377.667 61.667 C 377.758 61.667,377.833 61.778,377.833 61.915 C 377.833 62.051,377.963 62.314,378.120 62.498 C 378.507 62.949,387.500 63.031,387.500 62.583 C 387.500 62.446,387.613 62.333,387.750 62.333 C 387.935 62.333,388.000 62.140,388.000 61.593 C 388.000 61.186,388.075 60.807,388.167 60.750 C 388.258 60.693,388.333 60.201,388.333 59.657 C 388.333 58.888,388.389 58.667,388.583 58.667 C 388.778 58.667,388.833 58.444,388.833 57.667 C 388.833 57.111,388.907 56.667,389.000 56.667 C 389.093 56.667,389.167 56.222,389.167 55.667 C 389.167 54.889,389.222 54.667,389.417 54.667 C 389.606 54.667,389.667 54.463,389.667 53.833 C 389.667 53.375,389.742 53.000,389.833 53.000 C 389.926 53.000,390.000 52.561,390.000 52.018 C 390.000 51.299,390.067 51.010,390.250 50.940 C 390.431 50.870,390.500 50.588,390.500 49.922 C 390.500 49.415,390.575 49.000,390.667 49.000 C 390.759 49.000,390.833 48.556,390.833 48.000 C 390.833 47.444,390.907 47.000,391.000 47.000 C 391.092 47.000,391.167 46.633,391.167 46.184 C 391.167 45.613,391.242 45.340,391.417 45.273 C 391.597 45.204,391.667 44.921,391.667 44.255 C 391.667 43.748,391.742 43.333,391.833 43.333 C 391.926 43.333,392.000 42.895,392.000 42.351 C 392.000 41.632,392.067 41.343,392.250 41.273 C 392.434 41.202,392.500 40.912,392.500 40.172 C 392.500 39.613,392.574 39.167,392.667 39.167 C 392.758 39.167,392.833 38.792,392.833 38.333 C 392.833 37.704,392.894 37.500,393.083 37.500 C 393.278 37.500,393.333 37.278,393.333 36.500 C 393.333 35.944,393.407 35.500,393.500 35.500 C 393.592 35.500,393.667 35.061,393.667 34.518 C 393.667 33.799,393.734 33.510,393.917 33.440 C 394.097 33.370,394.167 33.088,394.167 32.422 C 394.167 31.915,394.242 31.500,394.333 31.500 C 394.425 31.500,394.500 31.125,394.500 30.667 C 394.500 30.208,394.575 29.833,394.667 29.833 C 394.759 29.833,394.833 29.389,394.833 28.833 C 394.833 28.056,394.889 27.833,395.083 27.833 C 395.278 27.833,395.333 27.611,395.333 26.833 C 395.333 26.278,395.407 25.833,395.500 25.833 C 395.592 25.833,395.667 25.466,395.667 25.018 C 395.667 24.447,395.742 24.174,395.917 24.106 C 396.097 24.037,396.167 23.754,396.167 23.089 C 396.167 22.582,396.242 22.167,396.333 22.167 C 396.426 22.167,396.500 21.728,396.500 21.184 C 396.500 20.465,396.567 20.177,396.750 20.106 C 396.931 20.037,397.000 19.754,397.000 19.089 C 397.000 18.582,397.075 18.167,397.167 18.167 C 397.258 18.167,397.333 17.801,397.333 17.354 C 397.333 16.834,397.424 16.466,397.583 16.333 C 397.742 16.201,397.833 15.833,397.833 15.323 C 397.833 14.881,397.908 14.473,398.000 14.417 C 398.092 14.360,398.167 13.868,398.167 13.323 C 398.167 12.774,398.241 12.333,398.333 12.333 C 398.426 12.333,398.500 11.889,398.500 11.333 C 398.500 10.556,398.556 10.333,398.750 10.333 C 398.939 10.333,399.000 10.130,399.000 9.500 C 399.000 9.042,399.075 8.667,399.167 8.667 C 399.259 8.667,399.333 8.222,399.333 7.667 C 399.333 6.889,399.389 6.667,399.583 6.667 C 399.766 6.667,399.834 6.476,399.835 5.958 C 399.836 5.569,399.884 4.856,399.941 4.375 L 400.046 3.500 393.440 3.500 L 386.833 3.500 386.833 4.482 C 386.833 5.201,386.766 5.490,386.583 5.560 C 386.403 5.630,386.333 5.912,386.333 6.578 C 386.333 7.085,386.258 7.500,386.167 7.500 C 386.074 7.500,386.000 7.939,386.000 8.482 C 386.000 9.201,385.933 9.490,385.750 9.560 C 385.579 9.626,385.500 9.893,385.500 10.402 C 385.500 10.812,385.425 11.193,385.333 11.250 C 385.242 11.307,385.167 11.757,385.167 12.250 C 385.167 12.743,385.092 13.193,385.000 13.250 C 384.908 13.307,384.833 13.799,384.833 14.343 C 384.833 15.112,384.778 15.333,384.583 15.333 C 384.389 15.333,384.333 15.556,384.333 16.333 C 384.333 16.889,384.259 17.333,384.167 17.333 C 384.075 17.333,384.000 17.708,384.000 18.167 C 384.000 18.796,383.939 19.000,383.750 19.000 C 383.556 19.000,383.500 19.222,383.500 20.000 C 383.500 20.556,383.426 21.000,383.333 21.000 C 383.241 21.000,383.167 21.444,383.167 22.000 C 383.167 22.778,383.111 23.000,382.917 23.000 C 382.722 23.000,382.667 23.222,382.667 24.000 C 382.667 24.556,382.593 25.000,382.500 25.000 C 382.408 25.000,382.333 25.343,382.333 25.762 C 382.333 26.217,382.233 26.625,382.083 26.774 C 381.929 26.928,381.833 27.337,381.833 27.845 C 381.833 28.297,381.758 28.667,381.667 28.667 C 381.574 28.667,381.500 29.111,381.500 29.667 C 381.500 30.222,381.426 30.667,381.333 30.667 C 381.239 30.667,381.167 31.139,381.167 31.750 C 381.167 32.602,381.113 32.833,380.917 32.833 C 380.732 32.833,380.667 33.027,380.667 33.573 C 380.667 33.981,380.592 34.360,380.500 34.417 C 380.408 34.473,380.333 34.890,380.333 35.343 C 380.333 35.944,380.243 36.257,380.000 36.500 C 379.581 36.919,379.500 36.918,379.500 36.495 C 379.500 36.309,379.387 36.113,379.250 36.060 C 379.113 36.008,378.998 35.841,378.995 35.691 C 378.988 35.345,378.607 34.833,378.357 34.833 C 378.252 34.833,378.167 34.646,378.167 34.417 C 378.167 34.188,378.092 34.000,378.000 34.000 C 377.908 34.000,377.833 33.813,377.833 33.583 C 377.833 33.324,377.739 33.167,377.583 33.167 C 377.428 33.167,377.333 33.009,377.333 32.750 C 377.333 32.521,377.258 32.333,377.167 32.333 C 377.075 32.333,377.000 32.181,377.000 31.995 C 377.000 31.809,376.887 31.613,376.750 31.560 C 376.613 31.508,376.500 31.337,376.500 31.180 C 376.500 31.024,376.350 30.735,376.167 30.538 C 375.983 30.342,375.833 30.027,375.833 29.840 C 375.833 29.649,375.724 29.500,375.583 29.500 C 375.428 29.500,375.333 29.343,375.333 29.083 C 375.333 28.854,375.258 28.667,375.167 28.667 C 375.075 28.667,375.000 28.514,375.000 28.328 C 375.000 28.142,374.887 27.946,374.750 27.894 C 374.613 27.841,374.500 27.656,374.500 27.482 C 374.500 27.309,374.425 27.167,374.333 27.167 C 374.242 27.167,374.167 27.054,374.167 26.917 C 374.167 26.779,374.054 26.667,373.917 26.667 C 373.761 26.667,373.667 26.509,373.667 26.250 C 373.667 26.021,373.592 25.833,373.500 25.833 C 373.408 25.833,373.333 25.646,373.333 25.417 C 373.333 25.157,373.239 25.000,373.083 25.000 C 372.928 25.000,372.833 24.843,372.833 24.583 C 372.833 24.354,372.758 24.167,372.667 24.167 C 372.575 24.167,372.500 24.060,372.500 23.930 C 372.500 23.633,371.959 22.669,371.792 22.668 C 371.723 22.667,371.667 22.554,371.667 22.417 C 371.667 22.279,371.592 22.167,371.500 22.167 C 371.408 22.167,371.333 21.979,371.333 21.750 C 371.333 21.491,371.239 21.333,371.083 21.333 C 370.928 21.333,370.833 21.176,370.833 20.917 C 370.833 20.688,370.758 20.500,370.667 20.500 C 370.575 20.500,370.500 20.348,370.500 20.161 C 370.500 19.975,370.387 19.780,370.250 19.727 C 370.113 19.674,370.000 19.489,370.000 19.316 C 370.000 19.142,369.925 19.000,369.833 19.000 C 369.742 19.000,369.667 18.813,369.667 18.583 C 369.667 18.324,369.572 18.167,369.417 18.167 C 369.279 18.167,369.167 18.054,369.167 17.917 C 369.167 17.779,369.092 17.667,369.000 17.667 C 368.908 17.667,368.833 17.479,368.833 17.250 C 368.833 17.021,368.758 16.833,368.667 16.833 C 368.575 16.833,368.500 16.683,368.500 16.500 C 368.500 16.315,368.389 16.167,368.250 16.167 C 368.094 16.167,368.000 16.009,368.000 15.750 C 368.000 15.521,367.925 15.333,367.833 15.333 C 367.742 15.333,367.667 15.181,367.667 14.995 C 367.667 14.809,367.554 14.613,367.417 14.560 C 367.279 14.508,367.167 14.360,367.167 14.232 C 367.167 14.104,367.092 14.000,367.000 14.000 C 366.908 14.000,366.833 13.813,366.833 13.583 C 366.833 13.324,366.739 13.167,366.583 13.167 C 366.444 13.167,366.333 13.019,366.333 12.833 C 366.333 12.650,366.258 12.500,366.167 12.500 C 366.075 12.500,366.000 12.313,366.000 12.083 C 366.000 11.824,365.906 11.667,365.750 11.667 C 365.594 11.667,365.500 11.509,365.500 11.250 C 365.500 11.021,365.425 10.833,365.333 10.833 C 365.242 10.833,365.167 10.673,365.167 10.477 C 365.167 10.282,364.979 9.948,364.750 9.735 C 364.521 9.523,364.333 9.233,364.333 9.091 C 364.333 8.949,364.258 8.833,364.167 8.833 C 364.075 8.833,364.000 8.646,364.000 8.417 C 364.000 8.157,363.906 8.000,363.750 8.000 C 363.594 8.000,363.500 7.843,363.500 7.583 C 363.500 7.354,363.425 7.167,363.333 7.167 C 363.242 7.167,363.167 7.027,363.167 6.857 C 363.167 6.686,362.979 6.406,362.750 6.234 C 362.521 6.061,362.333 5.751,362.333 5.544 C 362.333 5.320,362.232 5.167,362.083 5.167 C 361.928 5.167,361.833 5.009,361.833 4.750 C 361.833 4.521,361.758 4.333,361.667 4.333 C 361.575 4.333,361.500 4.146,361.500 3.917 L 361.500 3.500 354.833 3.500 L 348.167 3.500 348.167 3.917 M88.167 18.907 C 88.167 19.314,88.092 19.693,88.000 19.750 C 87.908 19.807,87.833 20.299,87.833 20.843 C 87.833 21.612,87.778 21.833,87.583 21.833 C 87.389 21.833,87.333 22.056,87.333 22.833 C 87.333 23.389,87.259 23.833,87.167 23.833 C 87.075 23.833,87.000 24.208,87.000 24.667 C 87.000 25.125,86.925 25.500,86.833 25.500 C 86.741 25.500,86.667 25.944,86.667 26.500 C 86.667 27.296,86.613 27.500,86.406 27.500 C 86.213 27.500,86.159 27.639,86.198 28.042 L 86.250 28.583 101.750 28.623 C 113.281 28.652,117.346 28.713,117.625 28.859 C 118.099 29.108,118.212 31.500,117.750 31.500 C 117.561 31.500,117.500 31.704,117.500 32.333 C 117.500 32.792,117.425 33.167,117.333 33.167 C 117.241 33.167,117.167 33.605,117.167 34.149 C 117.167 34.868,117.100 35.157,116.917 35.227 C 116.736 35.296,116.667 35.579,116.667 36.245 C 116.667 36.752,116.592 37.167,116.500 37.167 C 116.408 37.167,116.333 37.510,116.333 37.929 C 116.333 38.384,116.233 38.791,116.083 38.940 C 115.929 39.095,115.833 39.504,115.833 40.012 C 115.833 40.464,115.758 40.833,115.667 40.833 C 115.573 40.833,115.500 41.306,115.500 41.917 C 115.500 42.528,115.427 43.000,115.333 43.000 C 115.242 43.000,115.167 43.329,115.167 43.732 C 115.167 44.229,115.086 44.495,114.917 44.560 C 114.737 44.629,114.667 44.911,114.667 45.568 C 114.667 46.070,114.592 46.527,114.500 46.583 C 114.408 46.640,114.333 47.132,114.333 47.677 C 114.333 48.446,114.278 48.667,114.083 48.667 C 113.894 48.667,113.833 48.870,113.833 49.500 C 113.833 49.958,113.758 50.333,113.667 50.333 C 113.575 50.333,113.500 50.596,113.500 50.917 L 113.500 51.500 103.083 51.500 C 93.935 51.500,92.667 51.470,92.667 51.250 C 92.667 51.112,92.592 51.000,92.500 51.000 C 92.408 51.000,92.333 50.813,92.333 50.583 C 92.333 50.354,92.408 50.167,92.500 50.167 C 92.593 50.167,92.667 49.722,92.667 49.167 C 92.667 48.611,92.741 48.167,92.833 48.167 C 92.926 48.167,93.000 47.722,93.000 47.167 C 93.000 46.389,93.056 46.167,93.250 46.167 C 93.439 46.167,93.500 45.963,93.500 45.333 C 93.500 44.875,93.575 44.500,93.667 44.500 C 93.758 44.500,93.833 44.313,93.833 44.083 C 93.833 43.824,93.928 43.667,94.083 43.667 C 94.221 43.667,94.333 43.592,94.333 43.500 C 94.333 43.391,97.361 43.333,103.083 43.333 L 111.833 43.333 111.833 42.917 C 111.833 42.688,111.908 42.500,112.000 42.500 C 112.093 42.500,112.167 42.056,112.167 41.500 C 112.167 40.722,112.222 40.500,112.417 40.500 C 112.606 40.500,112.667 40.296,112.667 39.667 C 112.667 39.208,112.742 38.833,112.833 38.833 C 112.926 38.833,113.000 38.395,113.000 37.851 C 113.000 37.117,113.065 36.844,113.259 36.770 C 113.457 36.694,113.506 36.465,113.467 35.794 L 113.417 34.917 101.458 34.874 C 93.516 34.845,89.500 34.887,89.500 34.999 C 89.500 35.098,88.923 35.167,88.083 35.167 C 86.935 35.167,86.667 35.214,86.667 35.417 C 86.667 35.572,86.509 35.667,86.250 35.667 C 86.021 35.667,85.833 35.742,85.833 35.833 C 85.833 35.925,85.678 36.000,85.489 36.000 C 85.062 36.000,83.333 37.697,83.333 38.116 C 83.333 38.284,83.146 38.562,82.917 38.734 C 82.646 38.937,82.500 39.210,82.500 39.514 C 82.500 39.770,82.425 40.027,82.333 40.083 C 82.242 40.140,82.167 40.444,82.167 40.760 C 82.167 41.159,82.090 41.333,81.917 41.333 C 81.728 41.333,81.667 41.537,81.667 42.167 C 81.667 42.625,81.592 43.000,81.500 43.000 C 81.407 43.000,81.333 43.444,81.333 44.000 C 81.333 44.778,81.278 45.000,81.083 45.000 C 80.889 45.000,80.833 45.222,80.833 46.000 C 80.833 46.556,80.759 47.000,80.667 47.000 C 80.575 47.000,80.500 47.343,80.500 47.762 C 80.500 48.217,80.399 48.625,80.250 48.774 C 80.095 48.928,80.000 49.337,80.000 49.845 C 80.000 50.297,79.925 50.667,79.833 50.667 C 79.741 50.667,79.667 51.111,79.667 51.667 C 79.667 52.222,79.593 52.667,79.500 52.667 C 79.407 52.667,79.333 53.111,79.333 53.667 C 79.333 54.444,79.278 54.667,79.083 54.667 C 78.873 54.667,78.833 55.046,78.833 57.083 C 78.833 59.120,78.873 59.500,79.083 59.500 C 79.239 59.500,79.333 59.657,79.333 59.917 C 79.333 60.146,79.408 60.333,79.500 60.333 C 79.592 60.333,79.667 60.521,79.667 60.750 C 79.667 60.979,79.747 61.167,79.845 61.167 C 79.943 61.167,80.128 61.260,80.256 61.375 C 80.849 61.907,81.009 62.000,81.326 62.000 C 81.514 62.000,81.667 62.075,81.667 62.167 C 81.667 62.258,82.042 62.333,82.500 62.333 C 83.130 62.333,83.333 62.394,83.333 62.583 C 83.333 62.804,85.704 62.833,103.667 62.833 L 124.000 62.833 124.000 62.268 C 124.000 61.919,124.096 61.666,124.250 61.606 C 124.434 61.536,124.500 61.245,124.500 60.505 C 124.500 59.946,124.574 59.500,124.667 59.500 C 124.758 59.500,124.833 59.157,124.833 58.738 C 124.833 58.283,124.934 57.875,125.083 57.726 C 125.238 57.572,125.333 57.163,125.333 56.655 C 125.333 56.203,125.408 55.833,125.500 55.833 C 125.593 55.833,125.667 55.389,125.667 54.833 C 125.667 54.278,125.741 53.833,125.833 53.833 C 125.926 53.833,126.000 53.389,126.000 52.833 C 126.000 52.056,126.056 51.833,126.250 51.833 C 126.439 51.833,126.500 51.630,126.500 51.000 C 126.500 50.542,126.575 50.167,126.667 50.167 C 126.759 50.167,126.833 49.722,126.833 49.167 C 126.833 48.389,126.889 48.167,127.083 48.167 C 127.278 48.167,127.333 47.944,127.333 47.167 C 127.333 46.611,127.407 46.167,127.500 46.167 C 127.592 46.167,127.667 45.728,127.667 45.184 C 127.667 44.465,127.734 44.177,127.917 44.106 C 128.087 44.041,128.167 43.774,128.167 43.265 C 128.167 42.855,128.242 42.473,128.333 42.417 C 128.425 42.360,128.500 41.914,128.500 41.425 C 128.500 40.788,128.571 40.508,128.750 40.440 C 128.930 40.371,129.000 40.089,129.000 39.432 C 129.000 38.930,129.075 38.473,129.167 38.417 C 129.258 38.360,129.333 37.868,129.333 37.323 C 129.333 36.774,129.408 36.333,129.500 36.333 C 129.592 36.333,129.667 35.993,129.667 35.578 C 129.667 35.061,129.745 34.793,129.917 34.727 C 130.100 34.657,130.167 34.368,130.167 33.649 C 130.167 33.105,130.241 32.667,130.333 32.667 C 130.426 32.667,130.500 32.222,130.500 31.667 C 130.500 30.889,130.556 30.667,130.750 30.667 C 130.939 30.667,131.000 30.463,131.000 29.833 C 131.000 29.375,131.075 29.000,131.167 29.000 C 131.258 29.000,131.333 28.582,131.333 28.071 C 131.333 27.468,131.421 27.055,131.583 26.893 C 131.784 26.692,131.833 26.134,131.833 24.066 C 131.833 21.930,131.791 21.473,131.583 21.394 C 131.446 21.341,131.333 21.118,131.333 20.899 C 131.333 20.679,131.258 20.500,131.167 20.500 C 131.075 20.500,131.000 20.385,131.000 20.245 C 131.000 20.104,130.887 19.946,130.750 19.894 C 130.612 19.841,130.500 19.693,130.500 19.566 C 130.500 19.429,130.328 19.333,130.083 19.333 C 129.854 19.333,129.667 19.258,129.667 19.167 C 129.667 19.075,129.525 19.000,129.351 19.000 C 129.178 19.000,128.992 18.887,128.940 18.750 C 128.874 18.579,128.607 18.500,128.098 18.500 C 127.688 18.500,127.307 18.425,127.250 18.333 C 127.182 18.224,120.470 18.167,107.657 18.167 L 88.167 18.167 88.167 18.907 M141.167 19.167 C 141.167 19.722,141.093 20.167,141.000 20.167 C 140.907 20.167,140.833 20.611,140.833 21.167 C 140.833 21.944,140.778 22.167,140.583 22.167 C 140.389 22.167,140.333 22.389,140.333 23.167 C 140.333 23.722,140.259 24.167,140.167 24.167 C 140.075 24.167,140.000 24.534,140.000 24.982 C 140.000 25.553,139.925 25.826,139.750 25.894 C 139.569 25.963,139.500 26.246,139.500 26.911 C 139.500 27.418,139.425 27.833,139.333 27.833 C 139.241 27.833,139.167 28.272,139.167 28.816 C 139.167 29.535,139.100 29.823,138.917 29.894 C 138.733 29.964,138.667 30.255,138.667 30.995 C 138.667 31.554,138.593 32.000,138.500 32.000 C 138.408 32.000,138.333 32.343,138.333 32.762 C 138.333 33.217,138.233 33.625,138.083 33.774 C 137.929 33.928,137.833 34.337,137.833 34.845 C 137.833 35.297,137.758 35.667,137.667 35.667 C 137.574 35.667,137.500 36.111,137.500 36.667 C 137.500 37.222,137.426 37.667,137.333 37.667 C 137.242 37.667,137.167 38.042,137.167 38.500 C 137.167 39.130,137.106 39.333,136.917 39.333 C 136.722 39.333,136.667 39.556,136.667 40.333 C 136.667 40.889,136.593 41.333,136.500 41.333 C 136.407 41.333,136.333 41.778,136.333 42.333 C 136.333 43.111,136.278 43.333,136.083 43.333 C 135.889 43.333,135.833 43.556,135.833 44.333 C 135.833 44.889,135.759 45.333,135.667 45.333 C 135.575 45.333,135.500 45.700,135.500 46.149 C 135.500 46.720,135.425 46.993,135.250 47.060 C 135.069 47.130,135.000 47.412,135.000 48.078 C 135.000 48.585,134.925 49.000,134.833 49.000 C 134.741 49.000,134.667 49.439,134.667 49.982 C 134.667 50.701,134.600 50.990,134.417 51.060 C 134.236 51.130,134.167 51.412,134.167 52.078 C 134.167 52.585,134.092 53.000,134.000 53.000 C 133.906 53.000,133.833 53.472,133.833 54.083 C 133.833 54.694,133.761 55.167,133.667 55.167 C 133.566 55.167,133.500 55.861,133.500 56.917 C 133.500 57.972,133.566 58.667,133.667 58.667 C 133.758 58.667,133.833 58.967,133.833 59.333 C 133.833 59.700,133.908 60.000,134.000 60.000 C 134.092 60.000,134.167 60.121,134.167 60.268 C 134.167 60.759,135.595 62.000,136.159 62.000 C 136.438 62.000,136.667 62.075,136.667 62.167 C 136.667 62.259,137.111 62.333,137.667 62.333 C 138.444 62.333,138.667 62.389,138.667 62.583 C 138.667 62.803,140.250 62.833,151.917 62.833 C 164.248 62.833,165.604 62.877,165.000 63.250 C 164.908 63.307,164.833 63.678,164.833 64.075 C 164.833 64.564,164.752 64.829,164.583 64.894 C 164.403 64.963,164.333 65.246,164.333 65.911 C 164.333 66.418,164.258 66.833,164.167 66.833 C 164.075 66.833,164.000 67.133,164.000 67.500 C 164.000 67.867,163.930 68.167,163.845 68.167 C 163.759 68.167,163.636 68.335,163.571 68.542 C 163.506 68.748,163.313 69.038,163.143 69.186 C 162.973 69.334,162.833 69.541,162.833 69.645 C 162.833 69.784,158.766 69.833,147.333 69.833 L 131.833 69.833 131.833 70.833 C 131.833 71.611,131.778 71.833,131.583 71.833 C 131.389 71.833,131.333 72.056,131.333 72.833 C 131.333 73.389,131.259 73.833,131.167 73.833 C 131.075 73.833,131.000 74.176,131.000 74.595 C 131.000 75.050,130.899 75.458,130.750 75.607 C 130.595 75.762,130.500 76.171,130.500 76.679 C 130.500 77.130,130.425 77.500,130.333 77.500 C 130.241 77.500,130.167 77.944,130.167 78.500 C 130.167 79.056,130.093 79.500,130.000 79.500 C 129.908 79.500,129.833 79.727,129.833 80.004 L 129.833 80.509 150.430 80.463 C 169.823 80.419,171.039 80.400,171.240 80.125 C 171.357 79.965,171.576 79.833,171.727 79.833 C 171.877 79.833,172.000 79.758,172.000 79.667 C 172.000 79.575,172.112 79.500,172.250 79.500 C 172.387 79.500,172.500 79.420,172.500 79.321 C 172.500 79.127,172.910 78.667,173.083 78.667 C 173.256 78.667,173.667 78.206,173.667 78.012 C 173.667 77.914,173.779 77.833,173.917 77.833 C 174.065 77.833,174.167 77.680,174.167 77.456 C 174.167 77.249,174.354 76.939,174.583 76.766 C 174.858 76.560,175.000 76.291,175.000 75.977 C 175.000 75.714,175.075 75.500,175.167 75.500 C 175.258 75.500,175.333 75.307,175.333 75.071 C 175.333 74.836,175.446 74.530,175.583 74.393 C 175.721 74.255,175.833 73.886,175.833 73.571 C 175.833 73.257,175.908 73.000,176.000 73.000 C 176.092 73.000,176.167 72.625,176.167 72.167 C 176.167 71.708,176.242 71.333,176.333 71.333 C 176.426 71.333,176.500 70.889,176.500 70.333 C 176.500 69.556,176.556 69.333,176.750 69.333 C 176.944 69.333,177.000 69.111,177.000 68.333 C 177.000 67.778,177.074 67.333,177.167 67.333 C 177.258 67.333,177.333 66.966,177.333 66.518 C 177.333 65.947,177.408 65.674,177.583 65.606 C 177.764 65.537,177.833 65.254,177.833 64.589 C 177.833 64.082,177.908 63.667,178.000 63.667 C 178.092 63.667,178.167 63.228,178.167 62.684 C 178.167 61.965,178.234 61.677,178.417 61.606 C 178.587 61.541,178.667 61.274,178.667 60.765 C 178.667 60.355,178.742 59.973,178.833 59.917 C 178.925 59.860,179.000 59.414,179.000 58.925 C 179.000 58.288,179.071 58.008,179.250 57.940 C 179.434 57.869,179.500 57.578,179.500 56.839 C 179.500 56.280,179.574 55.833,179.667 55.833 C 179.759 55.833,179.833 55.389,179.833 54.833 C 179.833 54.278,179.907 53.833,180.000 53.833 C 180.092 53.833,180.167 53.458,180.167 53.000 C 180.167 52.370,180.228 52.167,180.417 52.167 C 180.611 52.167,180.667 51.944,180.667 51.167 C 180.667 50.611,180.741 50.167,180.833 50.167 C 180.926 50.167,181.000 49.722,181.000 49.167 C 181.000 48.389,181.056 48.167,181.250 48.167 C 181.439 48.167,181.500 47.963,181.500 47.333 C 181.500 46.875,181.575 46.500,181.667 46.500 C 181.759 46.500,181.833 46.056,181.833 45.500 C 181.833 44.722,181.889 44.500,182.083 44.500 C 182.278 44.500,182.333 44.278,182.333 43.500 C 182.333 42.944,182.407 42.500,182.500 42.500 C 182.592 42.500,182.667 42.157,182.667 41.738 C 182.667 41.283,182.767 40.875,182.917 40.726 C 183.071 40.572,183.167 40.163,183.167 39.655 C 183.167 39.203,183.242 38.833,183.333 38.833 C 183.426 38.833,183.500 38.389,183.500 37.833 C 183.500 37.278,183.574 36.833,183.667 36.833 C 183.758 36.833,183.833 36.466,183.833 36.018 C 183.833 35.447,183.908 35.174,184.083 35.106 C 184.264 35.037,184.333 34.754,184.333 34.089 C 184.333 33.582,184.408 33.167,184.500 33.167 C 184.592 33.167,184.667 32.728,184.667 32.184 C 184.667 31.465,184.734 31.177,184.917 31.106 C 185.101 31.036,185.167 30.745,185.167 30.005 C 185.167 29.446,185.241 29.000,185.333 29.000 C 185.425 29.000,185.500 28.671,185.500 28.268 C 185.500 27.771,185.580 27.505,185.750 27.440 C 185.934 27.369,186.000 27.078,186.000 26.339 C 186.000 25.780,186.074 25.333,186.167 25.333 C 186.259 25.333,186.333 24.889,186.333 24.333 C 186.333 23.556,186.389 23.333,186.583 23.333 C 186.772 23.333,186.833 23.130,186.833 22.500 C 186.833 22.042,186.908 21.667,187.000 21.667 C 187.093 21.667,187.167 21.222,187.167 20.667 C 187.167 20.111,187.241 19.667,187.333 19.667 C 187.425 19.667,187.500 19.329,187.500 18.917 L 187.500 18.167 181.000 18.167 L 174.500 18.167 174.500 18.583 C 174.500 18.813,174.425 19.000,174.333 19.000 C 174.241 19.000,174.167 19.444,174.167 20.000 C 174.167 20.556,174.093 21.000,174.000 21.000 C 173.907 21.000,173.833 21.444,173.833 22.000 C 173.833 22.778,173.778 23.000,173.583 23.000 C 173.394 23.000,173.333 23.204,173.333 23.833 C 173.333 24.292,173.258 24.667,173.167 24.667 C 173.074 24.667,173.000 25.111,173.000 25.667 C 173.000 26.444,172.944 26.667,172.750 26.667 C 172.556 26.667,172.500 26.889,172.500 27.667 C 172.500 28.222,172.426 28.667,172.333 28.667 C 172.241 28.667,172.167 29.111,172.167 29.667 C 172.167 30.444,172.111 30.667,171.917 30.667 C 171.728 30.667,171.667 30.869,171.667 31.490 C 171.667 31.943,171.592 32.360,171.500 32.417 C 171.408 32.473,171.333 32.920,171.333 33.409 C 171.333 34.045,171.262 34.325,171.083 34.394 C 170.903 34.463,170.833 34.746,170.833 35.411 C 170.833 35.918,170.758 36.333,170.667 36.333 C 170.575 36.333,170.500 36.704,170.500 37.157 C 170.500 37.610,170.425 38.027,170.333 38.083 C 170.242 38.140,170.167 38.586,170.167 39.075 C 170.167 39.712,170.096 39.992,169.917 40.060 C 169.733 40.131,169.667 40.422,169.667 41.161 C 169.667 41.720,169.593 42.167,169.500 42.167 C 169.407 42.167,169.333 42.611,169.333 43.167 C 169.333 43.944,169.278 44.167,169.083 44.167 C 168.894 44.167,168.833 44.370,168.833 45.000 C 168.833 45.458,168.758 45.833,168.667 45.833 C 168.574 45.833,168.500 46.278,168.500 46.833 C 168.500 47.611,168.444 47.833,168.250 47.833 C 168.056 47.833,168.000 48.056,168.000 48.833 C 168.000 49.389,167.926 49.833,167.833 49.833 C 167.741 49.833,167.667 50.278,167.667 50.833 L 167.667 51.833 157.905 51.833 C 149.667 51.833,148.106 51.796,147.905 51.595 C 147.629 51.319,147.566 49.333,147.833 49.333 C 147.926 49.333,148.000 48.889,148.000 48.333 C 148.000 47.556,148.056 47.333,148.250 47.333 C 148.444 47.333,148.500 47.111,148.500 46.333 C 148.500 45.778,148.574 45.333,148.667 45.333 C 148.758 45.333,148.833 44.966,148.833 44.518 C 148.833 43.947,148.908 43.674,149.083 43.606 C 149.264 43.537,149.333 43.254,149.333 42.589 C 149.333 42.082,149.408 41.667,149.500 41.667 C 149.592 41.667,149.667 41.228,149.667 40.684 C 149.667 39.965,149.734 39.677,149.917 39.606 C 150.097 39.537,150.167 39.254,150.167 38.589 C 150.167 38.082,150.242 37.667,150.333 37.667 C 150.425 37.667,150.500 37.292,150.500 36.833 C 150.500 36.375,150.575 36.000,150.667 36.000 C 150.759 36.000,150.833 35.561,150.833 35.018 C 150.833 34.299,150.900 34.010,151.083 33.940 C 151.267 33.869,151.333 33.578,151.333 32.839 C 151.333 32.280,151.407 31.833,151.500 31.833 C 151.592 31.833,151.667 31.504,151.667 31.101 C 151.667 30.604,151.747 30.338,151.917 30.273 C 152.097 30.204,152.167 29.922,152.167 29.265 C 152.167 28.763,152.242 28.307,152.333 28.250 C 152.425 28.193,152.500 27.701,152.500 27.157 C 152.500 26.388,152.556 26.167,152.750 26.167 C 152.944 26.167,153.000 25.944,153.000 25.167 C 153.000 24.611,153.074 24.167,153.167 24.167 C 153.258 24.167,153.333 23.824,153.333 23.405 C 153.333 22.950,153.434 22.542,153.583 22.393 C 153.738 22.238,153.833 21.829,153.833 21.321 C 153.833 20.870,153.908 20.500,154.000 20.500 C 154.095 20.500,154.167 20.000,154.167 19.333 L 154.167 18.167 147.667 18.167 L 141.167 18.167 141.167 19.167 M201.500 18.333 C 201.500 18.426,201.054 18.500,200.495 18.500 C 199.755 18.500,199.464 18.566,199.394 18.750 C 199.334 18.904,199.081 19.000,198.732 19.000 C 198.421 19.000,198.167 19.075,198.167 19.167 C 198.167 19.258,198.035 19.336,197.875 19.339 C 197.515 19.345,197.000 19.721,197.000 19.977 C 197.000 20.081,196.920 20.167,196.821 20.167 C 196.591 20.167,196.167 20.591,196.167 20.821 C 196.167 20.920,196.081 21.000,195.977 21.000 C 195.721 21.000,195.345 21.515,195.339 21.875 C 195.336 22.035,195.258 22.167,195.167 22.167 C 195.075 22.167,195.000 22.354,195.000 22.583 C 195.000 22.843,194.906 23.000,194.750 23.000 C 194.594 23.000,194.500 23.157,194.500 23.417 C 194.500 23.646,194.425 23.833,194.333 23.833 C 194.242 23.833,194.167 24.096,194.167 24.417 C 194.167 24.824,194.091 25.000,193.917 25.000 C 193.743 25.000,193.667 25.175,193.667 25.573 C 193.667 25.889,193.592 26.193,193.500 26.250 C 193.408 26.307,193.333 26.799,193.333 27.343 C 193.333 28.112,193.278 28.333,193.083 28.333 C 192.889 28.333,192.833 28.556,192.833 29.333 C 192.833 29.889,192.759 30.333,192.667 30.333 C 192.575 30.333,192.500 30.676,192.500 31.095 C 192.500 31.550,192.399 31.958,192.250 32.107 C 192.095 32.262,192.000 32.671,192.000 33.179 C 192.000 33.630,191.925 34.000,191.833 34.000 C 191.741 34.000,191.667 34.444,191.667 35.000 C 191.667 35.556,191.593 36.000,191.500 36.000 C 191.408 36.000,191.333 36.367,191.333 36.816 C 191.333 37.387,191.258 37.660,191.083 37.727 C 190.903 37.796,190.833 38.079,190.833 38.745 C 190.833 39.252,190.758 39.667,190.667 39.667 C 190.574 39.667,190.500 40.111,190.500 40.667 C 190.500 41.444,190.444 41.667,190.250 41.667 C 190.056 41.667,190.000 41.889,190.000 42.667 C 190.000 43.222,189.926 43.667,189.833 43.667 C 189.742 43.667,189.667 44.010,189.667 44.429 C 189.667 44.884,189.566 45.291,189.417 45.440 C 189.262 45.595,189.167 46.004,189.167 46.512 C 189.167 46.964,189.092 47.333,189.000 47.333 C 188.906 47.333,188.833 47.806,188.833 48.417 C 188.833 49.269,188.780 49.500,188.583 49.500 C 188.389 49.500,188.333 49.722,188.333 50.500 C 188.333 51.056,188.259 51.500,188.167 51.500 C 188.075 51.500,188.000 51.875,188.000 52.333 C 188.000 52.792,187.925 53.167,187.833 53.167 C 187.735 53.167,187.667 53.750,187.667 54.583 C 187.667 55.731,187.619 56.000,187.417 56.000 C 187.218 56.000,187.167 56.241,187.167 57.167 C 187.167 58.093,187.218 58.333,187.417 58.333 C 187.606 58.333,187.667 58.537,187.667 59.167 C 187.667 59.625,187.742 60.000,187.833 60.000 C 187.925 60.000,188.000 60.133,188.000 60.297 C 188.000 60.657,189.034 61.667,189.402 61.667 C 189.548 61.667,189.667 61.742,189.667 61.833 C 189.667 61.925,189.854 62.000,190.083 62.000 C 190.313 62.000,190.500 62.075,190.500 62.167 C 190.500 62.259,190.944 62.333,191.500 62.333 C 192.278 62.333,192.500 62.389,192.500 62.583 C 192.500 62.975,230.582 62.962,230.732 62.570 C 230.788 62.425,230.833 61.975,230.833 61.570 C 230.833 61.165,230.908 60.833,231.000 60.833 C 231.094 60.833,231.167 60.361,231.167 59.750 C 231.167 59.139,231.239 58.667,231.333 58.667 C 231.426 58.667,231.500 58.222,231.500 57.667 C 231.500 56.889,231.556 56.667,231.750 56.667 C 231.939 56.667,232.000 56.463,232.000 55.833 C 232.000 55.375,232.075 55.000,232.167 55.000 C 232.259 55.000,232.333 54.556,232.333 54.000 C 232.333 53.204,232.387 53.000,232.594 53.000 C 232.787 53.000,232.841 52.861,232.802 52.458 L 232.750 51.917 217.125 51.874 C 206.902 51.846,201.500 51.774,201.500 51.666 C 201.500 51.575,201.387 51.500,201.250 51.500 C 201.097 51.500,201.000 51.345,201.000 51.101 C 201.000 50.882,201.112 50.659,201.250 50.606 C 201.430 50.537,201.500 50.255,201.500 49.598 C 201.500 49.097,201.575 48.640,201.667 48.583 C 201.758 48.527,201.833 48.035,201.833 47.490 C 201.833 46.941,201.908 46.500,202.000 46.500 C 202.092 46.500,202.167 46.171,202.167 45.768 C 202.167 45.271,202.247 45.005,202.417 44.940 C 202.601 44.869,202.667 44.578,202.667 43.839 C 202.667 43.280,202.741 42.833,202.833 42.833 C 202.925 42.833,203.000 42.458,203.000 42.000 C 203.000 41.370,203.061 41.167,203.250 41.167 C 203.444 41.167,203.500 40.944,203.500 40.167 C 203.500 39.611,203.574 39.167,203.667 39.167 C 203.759 39.167,203.833 38.722,203.833 38.167 C 203.833 37.389,203.889 37.167,204.083 37.167 C 204.272 37.167,204.333 36.963,204.333 36.333 C 204.333 35.875,204.408 35.500,204.500 35.500 C 204.592 35.500,204.667 35.061,204.667 34.518 C 204.667 33.799,204.734 33.510,204.917 33.440 C 205.097 33.370,205.167 33.088,205.167 32.422 C 205.167 31.915,205.242 31.500,205.333 31.500 C 205.425 31.500,205.500 31.238,205.500 30.917 C 205.500 30.596,205.575 30.333,205.667 30.333 C 205.758 30.333,205.833 30.146,205.833 29.917 C 205.833 29.657,205.928 29.500,206.083 29.500 C 206.221 29.500,206.333 29.387,206.333 29.250 C 206.333 29.031,207.556 29.000,216.333 29.000 C 225.111 29.000,226.333 29.031,226.333 29.250 C 226.333 29.387,226.408 29.500,226.500 29.500 C 226.592 29.500,226.667 29.762,226.667 30.083 C 226.667 30.404,226.592 30.667,226.500 30.667 C 226.406 30.667,226.333 31.139,226.333 31.750 C 226.333 32.602,226.280 32.833,226.083 32.833 C 225.898 32.833,225.833 33.028,225.833 33.583 C 225.833 33.996,225.758 34.333,225.667 34.333 C 225.574 34.333,225.500 34.777,225.500 35.332 L 225.500 36.330 216.542 36.374 L 207.583 36.417 207.532 37.042 C 207.503 37.385,207.409 37.667,207.323 37.667 C 207.237 37.667,207.167 38.109,207.167 38.649 C 207.167 39.368,207.100 39.657,206.917 39.727 C 206.736 39.796,206.667 40.079,206.667 40.745 C 206.667 41.252,206.592 41.667,206.500 41.667 C 206.406 41.667,206.333 42.139,206.333 42.750 C 206.333 43.361,206.261 43.833,206.167 43.833 C 206.075 43.833,206.000 43.983,206.000 44.167 C 206.000 44.498,206.111 44.500,221.000 44.500 L 236.000 44.500 236.000 44.083 C 236.000 43.824,236.094 43.667,236.250 43.667 C 236.444 43.667,236.500 43.444,236.500 42.667 C 236.500 42.111,236.574 41.667,236.667 41.667 C 236.759 41.667,236.833 41.228,236.833 40.684 C 236.833 39.965,236.900 39.677,237.083 39.606 C 237.255 39.541,237.333 39.273,237.333 38.755 C 237.333 38.340,237.408 38.000,237.500 38.000 C 237.592 38.000,237.667 37.561,237.667 37.018 C 237.667 36.299,237.734 36.010,237.917 35.940 C 238.097 35.870,238.167 35.588,238.167 34.922 C 238.167 34.415,238.242 34.000,238.333 34.000 C 238.427 34.000,238.500 33.528,238.500 32.917 C 238.500 32.306,238.573 31.833,238.667 31.833 C 238.758 31.833,238.833 31.504,238.833 31.101 C 238.833 30.604,238.914 30.338,239.083 30.273 C 239.263 30.204,239.333 29.922,239.333 29.265 C 239.333 28.763,239.408 28.307,239.500 28.250 C 239.592 28.193,239.667 27.709,239.667 27.175 C 239.667 26.464,239.734 26.177,239.917 26.106 C 240.120 26.028,240.167 25.625,240.167 23.922 C 240.167 22.177,240.126 21.833,239.917 21.833 C 239.736 21.833,239.667 21.648,239.667 21.167 C 239.667 20.800,239.592 20.500,239.500 20.500 C 239.408 20.500,239.333 20.387,239.333 20.250 C 239.333 19.927,238.740 19.333,238.417 19.333 C 238.279 19.333,238.167 19.258,238.167 19.167 C 238.167 19.075,237.987 19.000,237.768 19.000 C 237.548 19.000,237.326 18.887,237.273 18.750 C 237.207 18.579,236.939 18.500,236.422 18.500 C 236.007 18.500,235.667 18.425,235.667 18.333 C 235.667 18.223,229.861 18.167,218.583 18.167 C 207.306 18.167,201.500 18.223,201.500 18.333 M250.208 18.416 C 250.094 18.546,250.000 19.068,250.000 19.576 C 250.000 20.286,249.942 20.500,249.750 20.500 C 249.561 20.500,249.500 20.704,249.500 21.333 C 249.500 21.792,249.425 22.167,249.333 22.167 C 249.241 22.167,249.167 22.605,249.167 23.149 C 249.167 23.868,249.100 24.157,248.917 24.227 C 248.737 24.296,248.667 24.578,248.667 25.235 C 248.667 25.737,248.592 26.193,248.500 26.250 C 248.408 26.307,248.333 26.799,248.333 27.343 C 248.333 28.112,248.278 28.333,248.083 28.333 C 247.894 28.333,247.833 28.537,247.833 29.167 C 247.833 29.625,247.758 30.000,247.667 30.000 C 247.574 30.000,247.500 30.439,247.500 30.982 C 247.500 31.701,247.433 31.990,247.250 32.060 C 247.069 32.130,247.000 32.412,247.000 33.078 C 247.000 33.585,246.925 34.000,246.833 34.000 C 246.742 34.000,246.667 34.375,246.667 34.833 C 246.667 35.292,246.592 35.667,246.500 35.667 C 246.407 35.667,246.333 36.111,246.333 36.667 C 246.333 37.444,246.278 37.667,246.083 37.667 C 245.889 37.667,245.833 37.889,245.833 38.667 C 245.833 39.222,245.759 39.667,245.667 39.667 C 245.574 39.667,245.500 40.111,245.500 40.667 C 245.500 41.444,245.444 41.667,245.250 41.667 C 245.061 41.667,245.000 41.870,245.000 42.500 C 245.000 42.958,244.925 43.333,244.833 43.333 C 244.741 43.333,244.667 43.772,244.667 44.316 C 244.667 45.035,244.600 45.323,244.417 45.394 C 244.236 45.463,244.167 45.746,244.167 46.411 C 244.167 46.918,244.092 47.333,244.000 47.333 C 243.906 47.333,243.833 47.806,243.833 48.417 C 243.833 49.269,243.780 49.500,243.583 49.500 C 243.399 49.500,243.333 49.693,243.333 50.240 C 243.333 50.647,243.258 51.027,243.167 51.083 C 243.075 51.140,243.000 51.590,243.000 52.083 C 243.000 52.577,242.925 53.027,242.833 53.083 C 242.742 53.140,242.667 53.632,242.667 54.177 C 242.667 54.946,242.611 55.167,242.417 55.167 C 242.228 55.167,242.167 55.370,242.167 56.000 C 242.167 56.458,242.092 56.833,242.000 56.833 C 241.907 56.833,241.833 57.278,241.833 57.833 C 241.833 58.611,241.778 58.833,241.583 58.833 C 241.389 58.833,241.333 59.056,241.333 59.833 C 241.333 60.389,241.259 60.833,241.167 60.833 C 241.074 60.833,241.000 61.278,241.000 61.835 L 241.000 62.837 247.458 62.794 L 253.917 62.750 253.967 61.958 C 253.995 61.523,254.089 61.167,254.176 61.167 C 254.262 61.167,254.333 60.725,254.333 60.184 C 254.333 59.465,254.400 59.177,254.583 59.106 C 254.764 59.037,254.833 58.754,254.833 58.089 C 254.833 57.582,254.908 57.167,255.000 57.167 C 255.092 57.167,255.167 56.728,255.167 56.184 C 255.167 55.465,255.234 55.177,255.417 55.106 C 255.587 55.041,255.667 54.774,255.667 54.265 C 255.667 53.855,255.742 53.473,255.833 53.417 C 255.925 53.360,256.000 52.910,256.000 52.417 C 256.000 51.923,256.075 51.473,256.167 51.417 C 256.258 51.360,256.333 50.868,256.333 50.323 C 256.333 49.554,256.389 49.333,256.583 49.333 C 256.778 49.333,256.833 49.111,256.833 48.333 C 256.833 47.778,256.907 47.333,257.000 47.333 C 257.092 47.333,257.167 46.958,257.167 46.500 C 257.167 45.870,257.228 45.667,257.417 45.667 C 257.611 45.667,257.667 45.444,257.667 44.667 C 257.667 44.111,257.741 43.667,257.833 43.667 C 257.926 43.667,258.000 43.222,258.000 42.667 C 258.000 41.889,258.056 41.667,258.250 41.667 C 258.444 41.667,258.500 41.444,258.500 40.667 C 258.500 40.111,258.574 39.667,258.667 39.667 C 258.758 39.667,258.833 39.324,258.833 38.905 C 258.833 38.450,258.934 38.042,259.083 37.893 C 259.238 37.738,259.333 37.329,259.333 36.821 C 259.333 36.370,259.408 36.000,259.500 36.000 C 259.593 36.000,259.667 35.556,259.667 35.000 C 259.667 34.444,259.741 34.000,259.833 34.000 C 259.927 34.000,260.000 33.528,260.000 32.917 C 260.000 32.065,260.053 31.833,260.250 31.833 C 260.417 31.833,260.500 31.667,260.500 31.333 C 260.500 30.972,260.685 30.648,261.167 30.167 L 261.833 29.500 271.333 29.500 L 280.833 29.500 280.833 28.667 C 280.833 28.037,280.894 27.833,281.083 27.833 C 281.272 27.833,281.333 27.630,281.333 27.000 C 281.333 26.542,281.408 26.167,281.500 26.167 C 281.593 26.167,281.667 25.722,281.667 25.167 C 281.667 24.611,281.741 24.167,281.833 24.167 C 281.926 24.167,282.000 23.722,282.000 23.167 C 282.000 22.389,282.056 22.167,282.250 22.167 C 282.439 22.167,282.500 21.963,282.500 21.333 C 282.500 20.875,282.575 20.500,282.667 20.500 C 282.762 20.500,282.833 20.000,282.833 19.333 L 282.833 18.167 275.333 18.167 C 270.444 18.167,267.833 18.225,267.833 18.333 C 267.833 18.425,267.418 18.500,266.911 18.500 C 266.246 18.500,265.963 18.569,265.894 18.750 C 265.841 18.887,265.618 19.000,265.399 19.000 C 265.179 19.000,265.000 19.075,265.000 19.167 C 265.000 19.258,264.845 19.333,264.655 19.333 C 264.286 19.333,263.833 19.694,263.833 19.988 C 263.833 20.086,263.678 20.167,263.488 20.167 C 263.298 20.167,263.017 20.293,262.863 20.448 C 262.601 20.711,262.580 20.673,262.532 19.848 C 262.493 19.169,262.547 18.919,262.766 18.759 C 263.497 18.224,262.889 18.167,256.615 18.173 C 251.476 18.178,250.381 18.220,250.208 18.416 M296.000 18.333 C 296.000 18.426,295.561 18.500,295.018 18.500 C 294.299 18.500,294.010 18.567,293.940 18.750 C 293.887 18.887,293.691 19.000,293.505 19.000 C 293.319 19.000,293.167 19.075,293.167 19.167 C 293.167 19.258,292.979 19.333,292.750 19.333 C 292.521 19.333,292.333 19.408,292.333 19.500 C 292.333 19.592,292.232 19.667,292.109 19.667 C 291.986 19.667,291.667 19.854,291.401 20.083 C 291.135 20.312,290.860 20.500,290.792 20.500 C 290.723 20.500,290.667 20.612,290.667 20.750 C 290.667 20.887,290.593 21.000,290.503 21.000 C 290.413 21.000,290.293 21.188,290.235 21.417 C 290.178 21.646,290.064 21.833,289.982 21.833 C 289.900 21.833,289.833 22.021,289.833 22.250 C 289.833 22.479,289.758 22.667,289.667 22.667 C 289.575 22.667,289.500 22.809,289.500 22.982 C 289.500 23.156,289.387 23.341,289.250 23.394 C 289.093 23.454,289.000 23.709,289.000 24.078 C 289.000 24.402,288.925 24.667,288.833 24.667 C 288.742 24.667,288.667 25.034,288.667 25.482 C 288.667 26.053,288.592 26.326,288.417 26.394 C 288.236 26.463,288.167 26.746,288.167 27.411 C 288.167 27.918,288.092 28.333,288.000 28.333 C 287.908 28.333,287.833 28.772,287.833 29.316 C 287.833 30.035,287.766 30.323,287.583 30.394 C 287.403 30.463,287.333 30.746,287.333 31.411 C 287.333 31.918,287.258 32.333,287.167 32.333 C 287.074 32.333,287.000 32.778,287.000 33.333 C 287.000 33.889,286.926 34.333,286.833 34.333 C 286.742 34.333,286.667 34.700,286.667 35.149 C 286.667 35.720,286.592 35.993,286.417 36.060 C 286.236 36.130,286.167 36.412,286.167 37.078 C 286.167 37.585,286.092 38.000,286.000 38.000 C 285.900 38.000,285.833 38.667,285.833 39.667 C 285.833 40.667,285.900 41.333,286.000 41.333 C 286.092 41.333,286.167 41.548,286.167 41.810 C 286.167 42.124,286.309 42.393,286.583 42.600 C 286.813 42.772,287.000 42.980,287.000 43.063 C 287.000 43.286,287.540 43.655,287.875 43.661 C 288.035 43.664,288.167 43.779,288.167 43.917 C 288.167 44.097,288.352 44.167,288.833 44.167 C 289.200 44.167,289.500 44.242,289.500 44.333 C 289.500 44.443,294.083 44.500,302.917 44.500 C 314.731 44.500,316.333 44.530,316.333 44.750 C 316.333 44.887,316.408 45.000,316.500 45.000 C 316.592 45.000,316.667 45.188,316.667 45.417 C 316.667 45.646,316.592 45.833,316.500 45.833 C 316.407 45.833,316.333 46.278,316.333 46.833 C 316.333 47.611,316.278 47.833,316.083 47.833 C 315.894 47.833,315.833 48.037,315.833 48.667 C 315.833 49.125,315.758 49.500,315.667 49.500 C 315.575 49.500,315.500 49.837,315.500 50.250 C 315.500 50.663,315.425 51.000,315.333 51.000 C 315.242 51.000,315.167 51.112,315.167 51.250 C 315.167 51.387,315.054 51.500,314.917 51.500 C 314.779 51.500,314.667 51.575,314.667 51.667 C 314.667 51.777,309.278 51.833,298.833 51.833 L 283.000 51.833 283.000 52.422 C 283.000 52.791,282.907 53.046,282.750 53.106 C 282.567 53.177,282.500 53.465,282.500 54.184 C 282.500 54.728,282.426 55.167,282.333 55.167 C 282.241 55.167,282.167 55.611,282.167 56.167 C 282.167 56.944,282.111 57.167,281.917 57.167 C 281.722 57.167,281.667 57.389,281.667 58.167 C 281.667 58.722,281.593 59.167,281.500 59.167 C 281.407 59.167,281.333 59.611,281.333 60.167 C 281.333 60.960,281.280 61.167,281.074 61.167 C 280.869 61.167,280.826 61.332,280.866 61.958 L 280.917 62.750 300.458 62.792 C 317.760 62.830,320.000 62.806,320.000 62.584 C 320.000 62.385,320.239 62.333,321.167 62.333 C 321.833 62.333,322.333 62.262,322.333 62.167 C 322.333 62.075,322.577 61.998,322.875 61.995 C 323.447 61.989,324.000 61.675,324.000 61.357 C 324.000 61.252,324.156 61.167,324.346 61.167 C 324.698 61.167,326.000 59.991,326.000 59.673 C 326.000 59.578,326.112 59.500,326.250 59.500 C 326.406 59.500,326.500 59.343,326.500 59.083 C 326.500 58.854,326.575 58.667,326.667 58.667 C 326.758 58.667,326.833 58.525,326.833 58.351 C 326.833 58.178,326.946 57.992,327.083 57.940 C 327.221 57.887,327.333 57.696,327.333 57.515 C 327.333 57.334,327.408 57.140,327.500 57.083 C 327.592 57.027,327.667 56.655,327.667 56.258 C 327.667 55.770,327.748 55.505,327.917 55.440 C 328.088 55.374,328.167 55.106,328.167 54.589 C 328.167 54.173,328.242 53.833,328.333 53.833 C 328.426 53.833,328.500 53.395,328.500 52.851 C 328.500 52.132,328.567 51.843,328.750 51.773 C 328.931 51.704,329.000 51.421,329.000 50.755 C 329.000 50.248,329.075 49.833,329.167 49.833 C 329.258 49.833,329.333 49.458,329.333 49.000 C 329.333 48.542,329.408 48.167,329.500 48.167 C 329.593 48.167,329.667 47.722,329.667 47.167 C 329.667 46.389,329.722 46.167,329.917 46.167 C 330.111 46.167,330.167 45.944,330.167 45.167 C 330.167 44.611,330.241 44.167,330.333 44.167 C 330.427 44.167,330.500 43.694,330.500 43.083 C 330.500 42.231,330.553 42.000,330.750 42.000 C 330.942 42.000,331.000 41.786,331.000 41.078 C 331.000 40.412,330.931 40.130,330.750 40.060 C 330.580 39.995,330.500 39.729,330.500 39.232 C 330.500 38.829,330.425 38.500,330.333 38.500 C 330.242 38.500,330.167 38.361,330.167 38.190 C 330.167 38.020,329.971 37.738,329.732 37.565 C 329.492 37.392,329.198 37.156,329.077 37.042 C 328.956 36.927,328.809 36.833,328.750 36.833 C 328.691 36.833,328.530 36.721,328.393 36.583 C 328.255 36.446,327.848 36.333,327.488 36.333 C 327.128 36.333,326.833 36.258,326.833 36.167 C 326.833 36.057,322.274 36.000,313.488 36.000 C 302.144 36.000,300.107 35.964,299.905 35.762 C 299.634 35.491,299.574 34.000,299.833 34.000 C 299.927 34.000,300.000 33.528,300.000 32.917 C 300.000 32.306,300.073 31.833,300.167 31.833 C 300.258 31.833,300.333 31.496,300.333 31.083 C 300.333 30.528,300.398 30.333,300.583 30.333 C 300.739 30.333,300.833 30.176,300.833 29.917 C 300.833 29.688,300.908 29.500,301.000 29.500 C 301.092 29.500,301.167 29.387,301.167 29.250 C 301.167 29.094,301.324 29.000,301.583 29.000 C 301.813 29.000,302.000 28.925,302.000 28.833 C 302.000 28.723,307.254 28.667,317.429 28.667 C 334.649 28.667,333.333 28.768,333.333 27.446 C 333.333 26.939,333.413 26.672,333.583 26.606 C 333.763 26.537,333.833 26.255,333.833 25.598 C 333.833 25.097,333.908 24.640,334.000 24.583 C 334.092 24.527,334.167 24.035,334.167 23.490 C 334.167 22.721,334.222 22.500,334.417 22.500 C 334.611 22.500,334.667 22.278,334.667 21.500 C 334.667 20.944,334.741 20.500,334.833 20.500 C 334.929 20.500,335.000 20.000,335.000 19.333 L 335.000 18.167 315.500 18.167 C 302.611 18.167,296.000 18.223,296.000 18.333 " stroke="none" fill="#ffffff" fill-rule="evenodd"></path><path id="path1" d="" stroke="none" fill="#08b4dc" fill-rule="evenodd"></path><path id="path2" d="" stroke="none" fill="#08b4dc" fill-rule="evenodd"></path><path id="path3" d="" stroke="none" fill="#08b4dc" fill-rule="evenodd"></path><path id="path4" d="" stroke="none" fill="#08b4dc" fill-rule="evenodd"></path></g></svg>